<svg xmlns="http://www.w3.org/2000/svg" width="16" height="16" viewBox="0 0 16 16">
  <path fill="#000" fill-rule="nonzero" d="M9.75 13.875L8 16l-1.75-2.125H2.17c-.646 0-1.17-.53-1.17-1.185V1.186C1 .53 1.524 0 2.17 0h11.66C14.476 0 15 .53 15 1.185V12.69c0 .654-.524 1.185-1.17 1.185H9.75zM4.785 2.133h-1.71v9.6h1.71V8.735c0-1.799.66-1.796 1.133-1.802.569.005 1.149.037 1.149 1.202v3.598h1.71V7.598c0-1.865-1.152-2.463-2.29-2.463-1.131 0-1.138 0-1.702 1.2V2.133zm7.104 9.6c.573 0 1.037-.477 1.037-1.066 0-.59-.464-1.067-1.037-1.067s-1.037.478-1.037 1.067.464 1.066 1.037 1.066z"/>
</svg>