<svg width="16" height="16" viewBox="0 0 16 16" aria-hidden="true" focusable="false" role="presentation" xmlns="http://www.w3.org/2000/svg"><path fill="currentColor" d="M14,0 C15.1045695,0 16,0.8954305 16,2 L16,15 C16,15.5522847 15.5522847,16 15,16 C14.802575,16 14.6095673,15.941562 14.4452998,15.8320503 L10.1830518,14.0754415 C10.0621903,14.0256306 9.93273513,14 9.80201166,14 L2,14 C0.8954305,14 -1.77635684e-15,13.1045695 -1.77635684e-15,12 L-1.77635684e-15,2 C-1.77635684e-15,0.8954305 0.8954305,0 2,0 L14,0 Z M11.8910989,3.5 L11.4066562,3.5 L11.2679401,3.50595276 L11.1448208,3.52381102 C11.0679401,3.53968504 11.0014573,3.56349606 10.9453722,3.59524409 L10.8690429,3.6488189 L10.7607326,3.74864392 L10.6642379,3.84969379 L9.0317054,5.8480315 L8.94072469,5.96752756 L8.8568334,6.09672441 C8.77648681,6.23077165 8.70677432,6.37937008 8.64769594,6.54251969 C8.61487462,6.63315836 8.58752352,6.72543015 8.56564264,6.81933508 L8.53692399,6.96141732 L8.509231,7.17913386 L8.5,7.4023622 L8.5,10.0480315 L8.509231,10.1338091 L8.53692399,10.2147638 C8.56153998,10.267126 8.59846396,10.316273 8.64769594,10.3622047 C8.68708153,10.3989501 8.72867271,10.4283465 8.77246948,10.4503937 L8.83981883,10.4779528 L8.91047657,10.4944882 L8.98444269,10.5 L11.8910989,10.5 L11.965065,10.4944882 L12.0585401,10.4699913 C12.1188963,10.4471274 12.1753315,10.4111986 12.2278456,10.3622047 C12.2606669,10.3315836 12.288018,10.2995334 12.3098989,10.2660542 L12.3386176,10.2147638 L12.3663106,10.1338091 L12.3755416,10.0480315 L12.3755416,7.33622047 L12.3696337,7.26346457 L12.3519102,7.19511811 C12.3282788,7.12897638 12.286924,7.06944882 12.2278456,7.01653543 C12.1950243,6.98713911 12.1606713,6.96264217 12.1247867,6.94304462 L12.0698109,6.91732283 L11.9830396,6.89251969 L11.8910989,6.88425197 L11.3121308,6.88425197 L11.2548986,6.87839567 L11.2013588,6.86082677 C11.1668964,6.84520997 11.1348956,6.82178478 11.1053564,6.79055118 C11.0817251,6.7655643 11.066601,6.73969554 11.0599842,6.71294488 L11.0564395,6.67215748 L11.0656558,6.63004724 L11.0876329,6.58661417 L12.3991729,4.35984252 L12.4459533,4.26951631 L12.4829919,4.16379753 C12.5184871,4.0247829 12.4984246,3.89354331 12.4228043,3.77007874 C12.3597873,3.6671916 12.2749074,3.59370079 12.1681644,3.5496063 L12.0840078,3.52204724 L11.9916527,3.50551181 L11.8910989,3.5 Z M5.9672115,3.5 L5.54332414,3.5 L5.42194762,3.50595276 L5.3142182,3.52381102 C5.24694762,3.53968504 5.18877511,3.56349606 5.13970067,3.59524409 L5.07291256,3.6488189 L4.978141,3.74864392 L4.89370815,3.84969379 L3.46524222,5.8480315 L3.38563411,5.96752756 L3.28913942,6.14194576 C3.22848562,6.26397317 3.1751838,6.39749781 3.12923395,6.54251969 C3.10051529,6.63315836 3.07658308,6.72543015 3.05743731,6.81933508 L3.03230849,6.96141732 L3.00807712,7.17913386 L3,7.4023622 L3,10.0480315 L3.00807712,10.1338091 L3.03230849,10.2147638 C3.05384748,10.267126 3.08615597,10.316273 3.12923395,10.3622047 C3.16369634,10.3989501 3.20008862,10.4283465 3.23841079,10.4503937 L3.29734147,10.4779528 L3.35916699,10.4944882 L3.42388736,10.5 L5.9672115,10.5 L6.03193186,10.4944882 L6.11372259,10.4699913 C6.16653429,10.4471274 6.21591506,10.4111986 6.26186491,10.3622047 C6.29058356,10.3315836 6.31451578,10.2995334 6.33366155,10.2660542 L6.35879037,10.2147638 L6.38302174,10.1338091 L6.39109886,10.0480315 L6.39109886,7.33622047 L6.3859295,7.26346457 L6.36295458,7.17331584 C6.34151131,7.11582969 6.30781476,7.06356955 6.26186491,7.01653543 C6.23314625,6.98713911 6.20308739,6.96264217 6.17168833,6.94304462 L6.12358458,6.91732283 L6.04765963,6.89251969 L5.9672115,6.88425197 L5.46061442,6.88425197 L5.41053626,6.87839567 L5.36368895,6.86082677 C5.33353436,6.84520997 5.30553367,6.82178478 5.27968688,6.79055118 C5.25900945,6.7655643 5.2457759,6.73969554 5.23998622,6.71294488 L5.2368846,6.67215748 L5.2449488,6.63004724 L5.26417881,6.58661417 L6.41177629,4.35984252 L6.45270917,4.26951631 L6.48511788,4.16379753 C6.51617622,4.0247829 6.4986215,3.89354331 6.43245372,3.77007874 C6.3773139,3.6671916 6.30304394,3.59370079 6.20964384,3.5496063 L6.13600686,3.52204724 L6.05519608,3.50551181 L5.9672115,3.5 Z" fill-rule="evenodd"/></svg>