<svg width="16" height="16" viewBox="0 0 16 16" aria-hidden="true" focusable="false" role="presentation" xmlns="http://www.w3.org/2000/svg"><path fill="currentColor" d="M14,0 C15.1045695,0 16,0.8954305 16,2 C16,2.74025244 15.5978339,3.38657394 15.0000725,3.73239368 L15.0000725,12.2676063 C15.5978339,12.6134261 16,13.2597476 16,14 C16,15.1045695 15.1045695,16 14,16 C13.2597476,16 12.6134261,15.5978339 12.2676063,15.0000725 L3.731,14.999 L3.67778764,15.0890209 C3.37670716,15.5519279 2.88924593,15.8824665 2.32179194,15.9742487 L2.14926234,15.9945143 L2,16 C0.8954305,16 0,15.1045695 0,14 C0,13.3615496 0.300474908,12.7883732 0.786392049,12.4197336 L0.923426221,12.3243714 L0.999,12.279 L0.999,3.731 L0.905077845,3.67403055 C0.445647463,3.37299898 0.119941456,2.88882097 0.027054007,2.32928164 L0.00627142325,2.15926678 L0,2 C0,0.8954305 0.8954305,0 2,0 C2.63845038,0 3.21162681,0.300474908 3.58026635,0.786392049 L3.67562861,0.923426221 L3.72,0.999 L12.2678243,0.999229502 C12.61375,0.401910749 13.260062,0 14,0 Z M12.268,2.999 L3.73252519,2.99994419 C3.55658235,3.30425438 3.30312337,3.55684395 3.00010778,3.73204303 L2.99950235,12.2688653 C3.2968457,12.4425399 3.54595911,12.6929713 3.72203057,12.9984094 L12.27,12.999 L12.342254,12.8843722 C12.4596379,12.7122499 12.6041402,12.5590479 12.7709221,12.4302863 L12.9001104,12.3383839 L12.999,12.279 L12.999,3.731 L12.9049458,3.67392149 C12.7027938,3.54141655 12.5265507,3.37343562 12.3846436,3.17915715 L12.2847828,3.02866094 L12.268,2.999 Z"/></svg>