<svg width="16" height="16" viewBox="0 0 16 16" aria-hidden="true" focusable="false" role="presentation" xmlns="http://www.w3.org/2000/svg"><path fill="currentColor" d="M9.61289944,3.20970461 L9.70710678,3.29289322 L13.7071068,7.29289322 C14.0675907,7.65337718 14.0953203,8.22060824 13.7902954,8.61289944 L13.7071068,8.70710678 L9.70710678,12.7071068 C9.31658249,13.0976311 8.68341751,13.0976311 8.29289322,12.7071068 C7.93240926,12.3466228 7.90467972,11.7793918 8.20970461,11.3871006 L8.29289322,11.2928932 L10.585,9 L3,9 C2.44771525,9 2,8.55228475 2,8 C2,7.48716416 2.38604019,7.06449284 2.88337887,7.00672773 L3,7 L10.585,7 L8.29289322,4.70710678 C7.93240926,4.34662282 7.90467972,3.77939176 8.20970461,3.38710056 L8.29289322,3.29289322 C8.65337718,2.93240926 9.22060824,2.90467972 9.61289944,3.20970461 Z"/></svg>