<svg width="16" height="16" viewBox="0 0 16 16" aria-hidden="true" focusable="false" role="presentation" xmlns="http://www.w3.org/2000/svg"><path fill="currentColor" d="M8.61289944,2.20970461 L8.70710678,2.29289322 L12.7071068,6.29289322 C13.0976311,6.68341751 13.0976311,7.31658249 12.7071068,7.70710678 C12.3466228,8.06759074 11.7793918,8.09532028 11.3871006,7.79029539 L11.2928932,7.70710678 L9,5.415 L9,13 C9,13.5522847 8.55228475,14 8,14 C7.48716416,14 7.06449284,13.6139598 7.00672773,13.1166211 L7,13 L7,5.415 L4.70710678,7.70710678 C4.34662282,8.06759074 3.77939176,8.09532028 3.38710056,7.79029539 L3.29289322,7.70710678 C2.93240926,7.34662282 2.90467972,6.77939176 3.20970461,6.38710056 L3.29289322,6.29289322 L7.29289322,2.29289322 C7.65337718,1.93240926 8.22060824,1.90467972 8.61289944,2.20970461 Z"/></svg>