<svg width="16" height="16" viewBox="0 0 16 16" aria-hidden="true" focusable="false" role="presentation" xmlns="http://www.w3.org/2000/svg"><path fill="currentColor" d="M7.70710678,3.29289322 C8.06759074,3.65337718 8.09532028,4.22060824 7.79029539,4.61289944 L7.70710678,4.70710678 L5.415,7 L13,7 C13.5522847,7 14,7.44771525 14,8 C14,8.51283584 13.6139598,8.93550716 13.1166211,8.99327227 L13,9 L5.415,9 L7.70710678,11.2928932 C8.06759074,11.6533772 8.09532028,12.2206082 7.79029539,12.6128994 L7.70710678,12.7071068 C7.34662282,13.0675907 6.77939176,13.0953203 6.38710056,12.7902954 L6.29289322,12.7071068 L2.29289322,8.70710678 C1.93240926,8.34662282 1.90467972,7.77939176 2.20970461,7.38710056 L2.29289322,7.29289322 L6.29289322,3.29289322 C6.68341751,2.90236893 7.31658249,2.90236893 7.70710678,3.29289322 Z"/></svg>