<svg width="16" height="16" viewBox="0 0 16 16" aria-hidden="true" focusable="false" role="presentation" xmlns="http://www.w3.org/2000/svg"><path fill="currentColor" d="M8,2 C8.51283584,2 8.93550716,2.38604019 8.99327227,2.88337887 L9,3 L9,10.585 L11.2928932,8.29289322 C11.6533772,7.93240926 12.2206082,7.90467972 12.6128994,8.20970461 L12.7071068,8.29289322 C13.0675907,8.65337718 13.0953203,9.22060824 12.7902954,9.61289944 L12.7071068,9.70710678 L8.70710678,13.7071068 C8.34662282,14.0675907 7.77939176,14.0953203 7.38710056,13.7902954 L7.29289322,13.7071068 L3.29289322,9.70710678 C2.90236893,9.31658249 2.90236893,8.68341751 3.29289322,8.29289322 C3.65337718,7.93240926 4.22060824,7.90467972 4.61289944,8.20970461 L4.70710678,8.29289322 L7,10.585 L7,3 C7,2.44771525 7.44771525,2 8,2 Z"/></svg>