<svg width="16" height="16" viewBox="0 0 16 16" aria-hidden="true" focusable="false" role="presentation" xmlns="http://www.w3.org/2000/svg"><path fill="currentColor" d="M13,0 L3,0 C2.44771525,0 2,0.44771525 2,1 L2,15 L2.00589128,15.1119759 C2.08752444,15.8788402 2.99969367,16.2808699 3.62469505,15.7808688 L8,12.28 L12.375305,15.7808688 C13.0300683,16.3046795 14,15.8385062 14,15 L14,1 C14,0.44771525 13.5522847,0 13,0 Z M12,2 L12,12.92 L8.62469505,10.2191312 L8.52150938,10.1466911 C8.16639187,9.92937094 7.70732191,9.95351763 7.37530495,10.2191312 L4,12.919 L4,2 L12,2 Z"/></svg>