<svg width="16" height="16" viewBox="0 0 16 16" aria-hidden="true" focusable="false" role="presentation" xmlns="http://www.w3.org/2000/svg"><path fill="currentColor" d="M12.3219361,5.08464303 L12.2426407,5.17157288 L9.414,7.999 L12.2426407,10.8284271 C12.633165,11.2189514 12.633165,11.8521164 12.2426407,12.2426407 C11.8821567,12.6031246 11.3149257,12.6308542 10.9226345,12.3258293 L10.8284271,12.2426407 L8,9.414 L5.17157288,12.2426407 C4.2573338,13.1568798 2.89982731,11.8547817 3.67806387,10.915357 L3.75735931,10.8284271 L6.585,8 L3.75735931,5.17157288 C3.36683502,4.78104858 3.36683502,4.1478836 3.75735931,3.75735931 C4.11784327,3.39687535 4.68507433,3.36914582 5.07736554,3.67417071 L5.17157288,3.75735931 L8,6.585 L10.8284271,3.75735931 C11.7140962,2.87169021 13.0157614,4.06600157 12.3887175,4.99558815 L12.3219361,5.08464303 Z"/></svg>