<svg width="16" height="16" viewBox="0 0 16 16" aria-hidden="true" focusable="false" role="presentation" xmlns="http://www.w3.org/2000/svg"><path fill="currentColor" d="M7.98537477,0 C10.2231597,0 12.1284395,0.781262207 13.6997141,2.34303661 C14.4517258,3.09529836 15.0234847,3.9550618 15.4139908,4.9215769 C15.8042469,5.88834201 16,6.91435804 16,8.000125 C16,9.09539212 15.806747,10.1216582 15.421491,11.0784231 C15.0357349,12.0354381 14.466476,12.8809513 13.7144643,13.6142127 C12.9337021,14.3854748 12.0479382,14.976234 11.0571728,15.3857404 C10.0669073,15.7952468 9.0428913,16 7.98587478,16 C6.92885826,16 5.91684245,15.7979968 4.95007734,15.3927405 C3.98356224,14.9882342 3.1167987,14.402475 2.35003672,13.6359631 C1.58327474,12.8694511 1.00001563,12.0049376 0.600009375,11.0429225 C0.200003125,10.0809075 0,9.06689167 0,8.000125 C0,6.94285848 0.20225316,5.9263426 0.607009485,4.95007734 C1.01176581,3.97381209 1.600025,3.10004844 2.37128705,2.32853638 C3.89506086,0.776512133 5.7663401,0 7.98537477,0 Z M8.01437522,1.44302255 C6.18584665,1.44302255 4.64757262,2.08128252 3.39980312,3.35730246 C2.7710433,3.99556243 2.28778575,4.71207363 1.94978047,5.50733605 C1.61127518,6.30259848 1.44252254,7.13361146 1.44252254,8.00037501 C1.44252254,8.8576384 1.61127518,9.68390131 1.94978047,10.4786637 C2.28803575,11.2744262 2.7710433,11.9839372 3.39980312,12.607697 C4.02831294,13.2317067 4.73757402,13.7074642 5.52858638,14.0364693 C6.31884873,14.3649745 7.14761168,14.529227 8.01437522,14.529227 C8.87138862,14.529227 9.70190159,14.3629744 10.5076642,14.0294692 C11.3124268,13.695714 12.0379381,13.2152065 12.6859482,12.5866967 C13.9334677,11.3676776 14.5569775,9.83915374 14.5569775,8.00062501 C14.5569775,7.11486117 14.3949749,6.27684808 14.0712199,5.48633572 C13.7479648,4.69582337 13.2762074,3.99131236 12.6576978,3.37180268 C11.3711777,2.08603259 9.8239035,1.44302255 8.01437522,1.44302255 Z M7.91412366,6.67185425 L6.84235691,7.22911295 C6.72785512,6.99135924 6.58760293,6.82435663 6.42110033,6.72910514 C6.25434772,6.63410366 6.09959531,6.58635291 5.95659307,6.58635291 C5.24258192,6.58635291 4.88507633,7.05761028 4.88507633,8.00062501 C4.88507633,8.42913171 4.97557774,8.77163706 5.15633057,9.02889108 C5.3373334,9.2861451 5.60408756,9.41489711 5.95659307,9.41489711 C6.42335036,9.41489711 6.7518555,9.18614353 6.94260848,8.72913639 L7.92812388,9.22914421 C7.7186206,9.61990031 7.42811606,9.92690511 7.05661026,10.1506586 C6.68560446,10.3746621 6.27584806,10.4864139 5.82809106,10.4864139 C5.1138299,10.4864139 4.5373209,10.2676604 4.09931405,9.82915358 C3.66130721,9.39114674 3.44230379,8.78163721 3.44230379,8.00087501 C3.44230379,7.23886311 3.66380725,6.63435366 4.10656417,6.18659667 C4.54932108,5.73908967 5.10882983,5.51508569 5.7853404,5.51508569 C6.77610588,5.51458617 7.48536696,5.90034219 7.91412366,6.67185425 Z M12.5284458,6.67185425 L11.4711792,7.22911295 C11.3569275,6.99135924 11.2161753,6.82435663 11.0496727,6.72910514 C10.88267,6.63410366 10.7229175,6.58635291 10.5711652,6.58635291 C9.85690401,6.58635291 9.49939843,7.05761028 9.49939843,8.00062501 C9.49939843,8.42913171 9.59014985,8.77163706 9.77090267,9.02889108 C9.95165549,9.2861451 10.2181597,9.41489711 10.5711652,9.41489711 C11.0374225,9.41489711 11.3661776,9.18614353 11.5564306,8.72913639 L12.5564462,9.22914421 C12.3376928,9.61990031 12.0421882,9.92690511 11.6711824,10.1506586 C11.2996766,10.3746621 10.8949202,10.4864139 10.4569134,10.4864139 C9.73290208,10.4864139 9.15464304,10.2676604 8.72163628,9.82915358 C8.28762949,9.39114674 8.07112611,8.78163721 8.07112611,8.00087501 C8.07112611,7.23886311 8.29237957,6.63435366 8.73563649,6.18659667 C9.17814341,5.73908967 9.73765215,5.51508569 10.4139127,5.51508569 C11.4044282,5.51458617 12.1096892,5.90034219 12.5284458,6.67185425 Z"/></svg>