<svg width="16" height="16" viewBox="0 0 16 16" aria-hidden="true" focusable="false" role="presentation" xmlns="http://www.w3.org/2000/svg"><path fill="currentColor" d="M7.98325,-9.9475983e-14 C10.22125,-9.9475983e-14 12.13125,0.77975 13.70325,2.34175 C14.4555,3.09425 15.027,3.953 15.4175,4.92425 C15.8075,5.8865 16,6.91425 16,8 C16,9.09575 15.8075,10.125 15.41725,11.08675 C15.0365,12.039 14.467,12.88 13.71425,13.61325 C12.933,14.385 12.0495,14.97375 11.059,15.3835 C10.06825,15.79325 9.0405,15.99975 7.98325,15.99975 C6.92575,15.99975 5.9125,15.80075 4.941,15.40025 C3.97875,14.99075 3.11275,14.40325 2.3415,13.641 C1.5795,12.87 0.99925,12.0045 0.59925,11.042 C0.19925,10.08 0,9.067 0,8 C0,6.94275 0.19925,5.92975 0.59925,4.958 C1.009,3.97675 1.598,3.09675 2.36975,2.325 C3.8935,0.7725 5.764,-9.9475983e-14 7.98325,-9.9475983e-14 Z M8.01675,1.43975 C6.188,1.43975 4.648,2.0795 3.4005,3.35525 C2.772,3.99375 2.28675,4.71225 1.944,5.51225 C1.61075,6.30275 1.43975,7.13275 1.43975,7.9995 C1.43975,8.85675 1.61075,9.6815 1.944,10.48125 C2.28675,11.272 2.77175,11.98175 3.4005,12.61025 C4.02925,13.22975 4.73875,13.70575 5.5295,14.03925 C6.31975,14.363 7.14975,14.52625 8.01675,14.52625 C8.874,14.52625 9.6985,14.36125 10.4985,14.02775 C11.308,13.69425 12.0355,13.2115 12.6835,12.5825 C13.931,11.3635 14.56,9.8385 14.56,8 C14.56,7.11425 14.39675,6.27525 14.07275,5.48475 C13.749,4.6945 13.2745,3.98625 12.65525,3.367 C11.36975,2.08125 9.82625,1.43975 8.01675,1.43975 Z M8,3.395 C10.641,3.395 11.30525,5.88725 11.30525,8 C11.30525,10.113 10.641,12.605 8,12.605 C5.3585,12.605 4.6945,10.113 4.6945,8 L4.70087556,7.64485352 C4.77440741,5.61802546 5.50548611,3.395 8,3.395 Z M9.3165,6.62175 L7.3505,10.01725 C7.076,10.429 7.2665,10.66175 7.569,10.7905 L7.7035,10.83475 C7.795,10.8575 7.8935,10.86875 8.0005,10.86875 C9.3585,10.86875 9.423,8.93075 9.423,8 L9.41611111,7.59100926 C9.40798611,7.36739815 9.39098611,7.11999537 9.35676736,6.87076968 L9.3165,6.62175 Z M8,5.1315 C6.74212963,5.1315 6.59365569,6.7928083 6.57856145,7.77758895 L6.577,7.99975 C6.577,8.23915 6.58196,8.54367 6.611592,8.86531 L6.63875,9.109 L8.39775,5.8765 C8.58025,5.561 8.48725,5.33475 8.297,5.17075 C8.205,5.148 8.10725,5.1315 8,5.1315 Z"/></svg>