<svg width="16" height="16" viewBox="0 0 16 16" aria-hidden="true" focusable="false" role="presentation" xmlns="http://www.w3.org/2000/svg"><path fill="currentColor" d="M6,9 C6.51283584,9 6.93550716,9.38604019 6.99327227,9.88337887 L7,10 L7,14 C7,14.5522847 6.55228475,15 6,15 C5.48716416,15 5.06449284,14.6139598 5.00672773,14.1166211 L5,14 L5,12.414 L1.70710678,15.7071068 C1.31658249,16.0976311 0.683417511,16.0976311 0.292893219,15.7071068 C-0.0675907428,15.3466228 -0.0953202783,14.7793918 0.209704612,14.3871006 L0.292893219,14.2928932 L3.584,11 L2,11 C1.48716416,11 1.06449284,10.6139598 1.00672773,10.1166211 L1,10 C1,9.48716416 1.38604019,9.06449284 1.88337887,9.00672773 L2,9 L6,9 Z M15.7071068,0.292893219 C16.0675907,0.65337718 16.0953203,1.22060824 15.7902954,1.61289944 L15.7071068,1.70710678 L12.414,5 L14,5 C14.5128358,5 14.9355072,5.38604019 14.9932723,5.88337887 L15,6 C15,6.51283584 14.6139598,6.93550716 14.1166211,6.99327227 L14,7 L10,7 C9.48716416,7 9.06449284,6.61395981 9.00672773,6.11662113 L9,6 L9,2 C9,1.44771525 9.44771525,1 10,1 C10.5128358,1 10.9355072,1.38604019 10.9932723,1.88337887 L11,2 L11,3.584 L14.2928932,0.292893219 C14.6834175,-0.0976310729 15.3165825,-0.0976310729 15.7071068,0.292893219 Z"/></svg>