<svg width="16" height="16" viewBox="0 0 16 16" aria-hidden="true" focusable="false" role="presentation" xmlns="http://www.w3.org/2000/svg"><path fill="currentColor" d="M4,4 C4.55228475,4 5,4.44771525 5,5 C5,5.51283584 4.61395981,5.93550716 4.11662113,5.99327227 L4,6 L2,6 L2,14 L9,14 C9.51283584,14 9.93550716,14.3860402 9.99327227,14.8833789 L10,15 C10,15.5128358 9.61395981,15.9355072 9.11662113,15.9932723 L9,16 L1,16 C0.487164161,16 0.0644928393,15.6139598 0.00672773133,15.1166211 L0,15 L0,5 C0,4.48716416 0.38604019,4.06449284 0.883378875,4.00672773 L1,4 L4,4 Z M15,0 C15.5128358,0 15.9355072,0.38604019 15.9932723,0.883378875 L16,1 L16,11 C16,11.5128358 15.6139598,11.9355072 15.1166211,11.9932723 L15,12 L7,12 C6.48716416,12 6.06449284,11.6139598 6.00672773,11.1166211 L6,11 L6,1 C6,0.487164161 6.38604019,0.0644928393 6.88337887,0.00672773133 L7,0 L15,0 Z M14,2 L8,2 L8,10 L14,10 L14,2 Z"/></svg>