<svg width="16" height="16" viewBox="0 0 16 16" aria-hidden="true" focusable="false" role="presentation" xmlns="http://www.w3.org/2000/svg"><path fill="currentColor" d="M8.66101695,16 C9.46610169,16 10.1970339,15.8828452 10.8538136,15.6485356 C11.5105932,15.4142259 12.0741525,15.0832171 12.5444915,14.6555091 C13.0148305,14.227801 13.375,13.7089726 13.625,13.0990237 C13.875,12.4890748 14,11.8121804 14,11.0683403 C14,10.7782427 13.9618644,10.4807066 13.8855932,10.1757322 C13.809322,9.87075779 13.7012712,9.58066016 13.5614407,9.30543933 C13.4216102,9.0302185 13.2563559,8.77917248 13.065678,8.55230126 C12.875,8.32543003 12.6737288,8.12645281 12.4618644,7.9553696 C12.2923729,7.82891678 12.2923729,7.69130637 12.4618644,7.54253835 C12.8432203,7.20781032 13.1610169,6.77080428 13.4152542,6.23152022 C13.6694915,5.69223617 13.7966102,5.16968852 13.7966102,4.66387727 C13.7966102,4.0241748 13.6652542,3.41980474 13.4025424,2.85076709 C13.1398305,2.28172943 12.779661,1.78707578 12.3220339,1.36680614 C11.8644068,0.946536495 11.3220339,0.613668061 10.6949153,0.368200837 C10.0677966,0.122733612 9.38983051,0 8.66101695,0 L8.66101695,0 L2.52118644,0 C2.38559322,0 2.26483051,0.0464900046 2.15889831,0.139470014 C2.0529661,0.232450023 2,0.338447234 2,0.457461646 L2,0.457461646 L2,15.5425384 C2,15.6615528 2.0529661,15.76755 2.15889831,15.86053 C2.26483051,15.95351 2.38559322,16 2.52118644,16 L2.52118644,16 L8.66101695,16 Z M8.53389831,6.14783821 L5.82627119,6.14783821 C5.65677966,6.14783821 5.5720339,6.07345421 5.5720339,5.92468619 L5.5720339,5.92468619 L5.5720339,3.43654114 C5.5720339,3.28033473 5.65677966,3.20223152 5.82627119,3.20223152 L5.82627119,3.20223152 L8.53389831,3.20223152 C8.98305085,3.20223152 9.38135593,3.34728033 9.72881356,3.63737796 C10.0762712,3.92747559 10.25,4.26964203 10.25,4.66387727 C10.25,5.05811251 10.0762712,5.40399814 9.72881356,5.70153417 C9.38135593,5.9990702 8.98305085,6.14783821 8.53389831,6.14783821 L8.53389831,6.14783821 Z M8.53389831,12.7977685 L5.82627119,12.7977685 C5.65677966,12.7977685 5.5720339,12.7233845 5.5720339,12.5746165 L5.5720339,12.5746165 L5.5720339,9.58437936 C5.5720339,9.42817294 5.65677966,9.35006974 5.82627119,9.35006974 L5.82627119,9.35006974 L8.53389831,9.35006974 C9.09322034,9.35006974 9.53813559,9.52673175 9.86864407,9.88005579 C10.1991525,10.2333798 10.3644068,10.6294747 10.3644068,11.0683403 C10.3644068,11.5220828 10.1991525,11.9237564 9.86864407,12.2733612 C9.53813559,12.6229661 9.09322034,12.7977685 8.53389831,12.7977685 L8.53389831,12.7977685 Z"/></svg>