<svg width="16" height="16" viewBox="0 0 16 16" aria-hidden="true" focusable="false" role="presentation" xmlns="http://www.w3.org/2000/svg"><path fill="currentColor" d="M10.2928932,3.29289322 C10.6533772,2.93240926 11.2206082,2.90467972 11.6128994,3.20970461 L11.7071068,3.29289322 L12.7071068,4.29289322 C13.0675907,4.65337718 13.0953203,5.22060824 12.7902954,5.61289944 L12.7071068,5.70710678 L3.70710678,14.7071068 C3.65643924,14.7577743 3.60054696,14.8027753 3.54043075,14.8413885 L3.4472136,14.8944272 L1.4472136,15.8944272 C0.620717897,16.307675 -0.254139023,15.4805006 0.0618577845,14.6521187 L0.105572809,14.5527864 L1.10557281,12.5527864 C1.13761778,12.4886965 1.17641127,12.4283301 1.22123196,12.372688 L1.29289322,12.2928932 L10.2928932,3.29289322 Z M13.2928932,0.292893219 C13.6533772,-0.0675907428 14.2206082,-0.0953202783 14.6128994,0.209704612 L14.7071068,0.292893219 L15.7071068,1.29289322 C16.0675907,1.65337718 16.0953203,2.22060824 15.7902954,2.61289944 L15.7071068,2.70710678 L14.7071068,3.70710678 C14.3466228,4.06759074 13.7793918,4.09532028 13.3871006,3.79029539 L13.2928932,3.70710678 L12.2928932,2.70710678 C11.9324093,2.34662282 11.9046797,1.77939176 12.2097046,1.38710056 L12.2928932,1.29289322 L13.2928932,0.292893219 Z"/></svg>