<svg width="16" height="16" viewBox="0 0 16 16" aria-hidden="true" focusable="false" role="presentation" xmlns="http://www.w3.org/2000/svg"><path fill="currentColor" d="M13.3918418,16 C13.5500618,16 13.6909765,15.9638467 13.8145859,15.8915401 C13.9381953,15.8192336 14,15.736804 14,15.6442516 L14,15.6442516 L14,13.8655098 C14,13.7671728 13.9381953,13.6832972 13.8145859,13.6138829 C13.6909765,13.5444685 13.5500618,13.5097614 13.3918418,13.5097614 L13.3918418,13.5097614 L6.85043263,13.5097614 C6.71199011,13.5097614 6.62299135,13.4822849 6.58343634,13.4273319 C6.54388133,13.3723789 6.54388133,13.3217643 6.58343634,13.2754881 L6.58343634,13.2754881 L12.1161928,8.17353579 C12.2744129,8.03470716 12.3386897,7.90889371 12.3090235,7.79609544 C12.2793572,7.68329718 12.2150803,7.57483731 12.1161928,7.47071584 L12.1161928,7.47071584 L6.88009889,2.70715835 C6.84054388,2.66088214 6.83807169,2.6131598 6.87268232,2.56399132 C6.90729295,2.51482285 7.00370828,2.49023861 7.16192831,2.49023861 L7.16192831,2.49023861 L13.3325093,2.49023861 C13.4907293,2.49023861 13.6291718,2.45408532 13.7478368,2.38177874 C13.8665019,2.30947216 13.9258344,2.22704266 13.9258344,2.13449024 L13.9258344,2.13449024 L13.9258344,0.355748373 C13.9258344,0.263195951 13.8665019,0.18076645 13.7478368,0.10845987 C13.6291718,0.0361532899 13.4907293,0 13.3325093,0 L13.3325093,0 L2.90482077,0 C2.74660074,0 2.60568603,0.0361532899 2.48207664,0.10845987 C2.35846724,0.18076645 2.29666255,0.263195951 2.29666255,0.355748373 L2.29666255,0.355748373 L2.29666255,2.29934924 C2.29666255,2.42660882 2.33374536,2.53506869 2.407911,2.62472885 C2.48207664,2.71438901 2.53893696,2.78235719 2.57849197,2.82863341 L2.57849197,2.82863341 L7.88875155,7.64425163 C7.92830655,7.69052784 7.95302843,7.74981923 7.96291718,7.82212581 C7.97280593,7.89443239 7.94808405,7.95950832 7.88875155,8.01735358 L7.88875155,8.01735358 L2.26699629,13.1713666 C2.22744129,13.2176428 2.17305315,13.2841649 2.10383189,13.3709328 C2.03461063,13.4577007 2,13.5676067 2,13.7006508 L2,13.7006508 L2,15.6442516 C2,15.736804 2.0618047,15.8192336 2.18541409,15.8915401 C2.30902349,15.9638467 2.4499382,16 2.60815822,16 L2.60815822,16 L13.3918418,16 Z"/></svg>