<svg width="16" height="16" viewBox="0 0 16 16" aria-hidden="true" focusable="false" role="presentation" xmlns="http://www.w3.org/2000/svg"><path fill="currentColor" d="M2.70118603,14 C3.08113392,14 3.35996665,13.9149606 3.53768421,13.7448819 C3.71540177,13.5748031 3.86554247,13.4015748 3.98810631,13.2251969 L3.98810631,13.2251969 L6.39648567,9.97480315 C6.64161334,9.64724409 6.84077957,9.2503937 6.99398437,8.78425197 C7.14718916,8.31811024 7.22379156,7.82677165 7.22379156,7.31023622 L7.22379156,7.31023622 L7.22379156,2.77480315 C7.22379156,2.57322835 7.14718916,2.39370079 6.99398437,2.23622047 C6.84077957,2.07874016 6.66612611,2 6.47002397,2 L6.47002397,2 L1.94741845,2 C1.75131631,2 1.57666285,2.07874016 1.42345805,2.23622047 C1.27025326,2.39370079 1.19365086,2.57322835 1.19365086,2.77480315 L1.19365086,2.77480315 L1.19365086,7.42362205 C1.19365086,7.63779528 1.27025326,7.82047244 1.42345805,7.97165354 C1.57666285,8.12283465 1.75131631,8.1984252 1.94741845,8.1984252 L1.94741845,8.1984252 L2.84826264,8.1984252 C2.97082647,8.1984252 3.07806983,8.2519685 3.1699927,8.35905512 C3.26191558,8.46614173 3.27110787,8.58267717 3.19756957,8.70866142 L3.19756957,8.70866142 L1.15688171,12.5259843 C0.960779573,12.8913386 0.948523189,13.2283465 1.12011256,13.5370079 C1.29170193,13.8456693 1.56747056,14 1.94741845,14 L1.94741845,14 L2.70118603,14 Z M10.4957791,14 C10.8634706,14 11.1361751,13.9149606 11.3138927,13.7448819 C11.4916102,13.5748031 11.6417509,13.4015748 11.7643147,13.2251969 L11.7643147,13.2251969 L14.1726941,9.97480315 C14.4300782,9.64724409 14.6323085,9.2503937 14.7793851,8.78425197 C14.9264617,8.31811024 15,7.82677165 15,7.31023622 L15,7.31023622 L15,2.77480315 C15,2.57322835 14.9233976,2.39370079 14.7701928,2.23622047 C14.616988,2.07874016 14.4423345,2 14.2462324,2 L14.2462324,2 L9.74201146,2 C9.53365294,2 9.35593538,2.07874016 9.20885878,2.23622047 C9.06178218,2.39370079 8.98824388,2.57322835 8.98824388,2.77480315 L8.98824388,2.77480315 L8.98824388,7.42362205 C8.98824388,7.63779528 9.06484627,7.82047244 9.21805107,7.97165354 C9.37125586,8.12283465 9.54590933,8.1984252 9.74201146,8.1984252 L9.74201146,8.1984252 L10.6428557,8.1984252 C10.7654195,8.1984252 10.8695987,8.2519685 10.9553934,8.35905512 C11.0411881,8.46614173 11.0473163,8.58267717 10.973778,8.70866142 L10.973778,8.70866142 L8.95147473,12.5259843 C8.74311621,12.8913386 8.72779573,13.2283465 8.90551329,13.5370079 C9.08323085,13.8456693 9.36206357,14 9.74201146,14 L9.74201146,14 L10.4957791,14 Z"/></svg>