<svg width="16" height="16" viewBox="0 0 16 16" aria-hidden="true" focusable="false" role="presentation" xmlns="http://www.w3.org/2000/svg"><path fill="currentColor" d="M10.6093888,16 C10.7298494,16 10.8396811,15.95351 10.938884,15.86053 C11.0380868,15.76755 11.1018601,15.6615528 11.1302037,15.5425384 L11.1302037,15.5425384 L11.5872453,13.3668061 C11.615589,13.2477917 11.5943313,13.1436541 11.5234721,13.0543933 C11.4526129,12.9651325 11.360496,12.9205021 11.2471213,12.9205021 L11.2471213,12.9205021 L8.84499557,12.9205021 C8.70327724,12.9130637 8.6465899,12.8349605 8.67493357,12.6861925 L8.67493357,12.6861925 L10.5668733,3.31380753 C10.6023029,3.16503952 10.6908769,3.09065551 10.8325952,3.09065551 L10.8325952,3.09065551 L13.0008857,3.09065551 C13.1213463,3.09065551 13.2329495,3.0441655 13.3356953,2.9511855 C13.4384411,2.85820549 13.5039858,2.75220828 13.5323295,2.63319386 L13.5323295,2.63319386 L13.9893711,0.457461646 C13.996457,0.420269642 14,0.386796839 14,0.357043236 C14,0.275220828 13.9716563,0.20083682 13.914969,0.133891213 C13.8441098,0.0446304045 13.7519929,0 13.6386182,0 L13.6386182,0 L5.80513729,0 C5.68467671,0 5.57307352,0.0464900046 5.47032772,0.139470014 C5.36758193,0.232450023 5.3020372,0.338447234 5.27369353,0.457461646 L5.27369353,0.457461646 L4.8166519,2.63319386 C4.78830824,2.75220828 4.81133747,2.85820549 4.88573959,2.9511855 C4.96014172,3.0441655 5.05403012,3.09065551 5.16740478,3.09065551 L5.16740478,3.09065551 L7.34632418,3.09065551 C7.48804252,3.09065551 7.54472985,3.16503952 7.51638618,3.31380753 L7.51638618,3.31380753 L5.62444641,12.6861925 C5.59610275,12.8423989 5.51107174,12.9205021 5.36935341,12.9205021 L5.36935341,12.9205021 L2.96722764,12.9205021 C2.85385297,12.9205021 2.74579274,12.9651325 2.64304694,13.0543933 C2.54030115,13.1436541 2.47475642,13.2477917 2.44641275,13.3668061 L2.44641275,13.3668061 L2.01062888,15.5425384 C2.00354296,15.5797304 2,15.6132032 2,15.6429568 C2,15.7247792 2.02480071,15.7991632 2.07440213,15.8661088 C2.14526129,15.9553696 2.23383525,16 2.340124,16 L2.340124,16 L10.6093888,16 Z"/></svg>