<svg width="16" height="16" viewBox="0 0 16 16" aria-hidden="true" focusable="false" role="presentation" xmlns="http://www.w3.org/2000/svg"><path fill="currentColor" d="M16.0000134,12 C16.0000134,13.0543618 15.1841222,13.9181651 14.1492623,13.9945143 L14,14 L2,14 C0.945638205,14 0.0818348781,13.1841222 0.00548573643,12.1492623 L0,12 L0,4 C0,2.9456382 0.815877791,2.08183488 1.85073766,2.00548574 L2,2 L14,2 C15.0543618,2 15.9181651,2.81587779 15.9945143,3.85073766 L16.0000134,3.98780375 L16.0000134,3.98780375 L16.0000134,12 Z M14,5.942 L8.58123819,9.81373347 C8.26831043,10.0372533 7.85868176,10.0596053 7.52641381,9.88078942 L7.41876181,9.81373347 L2,5.943 L2,12 L14,12 L14,5.942 Z M13.279,4 L2.721,4 L8,7.771 L13.279,4 Z"/></svg>