<svg width="16" height="16" viewBox="0 0 16 16" aria-hidden="true" focusable="false" role="presentation" xmlns="http://www.w3.org/2000/svg"><path fill="currentColor" d="M6.70710678,9.29289322 C7.06759074,9.65337718 7.09532028,10.2206082 6.79029539,10.6128994 L6.70710678,10.7071068 L3.414,14 L5,14 C5.51283584,14 5.93550716,14.3860402 5.99327227,14.8833789 L6,15 C6,15.5128358 5.61395981,15.9355072 5.11662113,15.9932723 L5,16 L1,16 C0.487164161,16 0.0644928393,15.6139598 0.00672773133,15.1166211 L0,15 L0,11 C0,10.4477153 0.44771525,10 1,10 C1.51283584,10 1.93550716,10.3860402 1.99327227,10.8833789 L2,11 L2,12.584 L5.29289322,9.29289322 C5.68341751,8.90236893 6.31658249,8.90236893 6.70710678,9.29289322 Z M15,0 C15.5128358,0 15.9355072,0.38604019 15.9932723,0.883378875 L16,1 L16,5 C16,5.55228475 15.5522847,6 15,6 C14.4871642,6 14.0644928,5.61395981 14.0067277,5.11662113 L14,5 L14,3.414 L10.7071068,6.70710678 C10.3165825,7.09763107 9.68341751,7.09763107 9.29289322,6.70710678 C8.93240926,6.34662282 8.90467972,5.77939176 9.20970461,5.38710056 L9.29289322,5.29289322 L12.584,2 L11,2 C10.4871642,2 10.0644928,1.61395981 10.0067277,1.11662113 L10,1 C10,0.487164161 10.3860402,0.0644928393 10.8833789,0.00672773133 L11,0 L15,0 Z"/></svg>