<svg width="16" height="16" viewBox="0 0 16 16" aria-hidden="true" focusable="false" role="presentation" xmlns="http://www.w3.org/2000/svg"><path fill="currentColor" d="M13,2 C13.5128358,2 13.9355072,2.38604019 13.9932723,2.88337887 L14,3 L14,9 C14,9.55228475 13.5522847,10 13,10 C12.4871642,10 12.0644928,9.61395981 12.0067277,9.11662113 L12,9 L12,5.414 L3.70710678,13.7071068 C3.31658249,14.0976311 2.68341751,14.0976311 2.29289322,13.7071068 C1.93240926,13.3466228 1.90467972,12.7793918 2.20970461,12.3871006 L2.29289322,12.2928932 L10.584,4 L7,4 C6.48716416,4 6.06449284,3.61395981 6.00672773,3.11662113 L6,3 C6,2.48716416 6.38604019,2.06449284 6.88337887,2.00672773 L7,2 L13,2 Z"/></svg>