<svg width="16" height="16" viewBox="0 0 16 16" aria-hidden="true" focusable="false" role="presentation" xmlns="http://www.w3.org/2000/svg"><path fill="currentColor" d="M11,12 C11.5522847,12 12,12.4477153 12,13 C12,13.5128358 11.6139598,13.9355072 11.1166211,13.9932723 L11,14 L5,14 C4.44771525,14 4,13.5522847 4,13 C4,12.4871642 4.38604019,12.0644928 4.88337887,12.0067277 L5,12 L11,12 Z M13,7 C13.5522847,7 14,7.44771525 14,8 C14,8.51283584 13.6139598,8.93550716 13.1166211,8.99327227 L13,9 L3,9 C2.44771525,9 2,8.55228475 2,8 C2,7.48716416 2.38604019,7.06449284 2.88337887,7.00672773 L3,7 L13,7 Z M15,2 C15.5522847,2 16,2.44771525 16,3 C16,3.51283584 15.6139598,3.93550716 15.1166211,3.99327227 L15,4 L1,4 C0.44771525,4 0,3.55228475 0,3 C0,2.48716416 0.38604019,2.06449284 0.883378875,2.00672773 L1,2 L15,2 Z"/></svg>