<svg width="16" height="16" viewBox="0 0 16 16" aria-hidden="true" focusable="false" role="presentation" xmlns="http://www.w3.org/2000/svg"><path fill="currentColor" d="M2,1 C2,0.487164161 2.38604019,0.0644928393 2.88337887,0.00672773133 L3,0 L15,0 C15.8521699,0 16.2974338,0.98551359 15.7832252,1.62252676 L15.7071068,1.70710678 L12.415,5 L15.7071068,8.29289322 C16.2822921,8.86807853 15.960362,9.81605227 15.2219062,9.97656804 L15.1136309,9.99401673 L15,10 L4,10 L4,15 C4,15.5522847 3.55228475,16 3,16 C2.48716416,16 2.06449284,15.6139598 2.00672773,15.1166211 L2,15 L2,1 Z M12.584,2 L4,2 L4,8 L12.585,8 L10.2928932,5.70710678 C9.96244959,5.37666315 9.91161211,4.87249453 10.1403808,4.48859705 L10.2097046,4.38710056 L10.2928932,4.29289322 L12.584,2 Z"/></svg>