<svg width="16" height="16" viewBox="0 0 16 16" aria-hidden="true" focusable="false" role="presentation" xmlns="http://www.w3.org/2000/svg"><path fill="currentColor" d="M8,16 C12.4183,16 16,12.4183 16,8 C16,3.58172 12.4183,0 8,0 C3.58172,0 0,3.58172 0,8 C0,12.4183 3.58172,16 8,16 Z M2.33179,6.02741 C2.70542,4.95361 3.37558,4.01864 4.24421,3.32056 C4.51209,3.72966 4.97449,3.99991 5.50001,3.99991 C6.32844,3.99991 7.00001,4.67148 7.00001,5.49991 L7.00001,5.99991 C7.00001,7.10448 7.89545,7.99991 9,7.99991 C10.1046,7.99991 11,7.10448 11,5.99991 C11,5.05979 11.6487,4.27118 12.5228,4.05719 C13.4428,5.11161 14,6.49069 14,7.99992 C14,8.3407 13.9716,8.6748 13.917,9.0001 L13,9.0001 C11.8954,9.0001 11,9.8955 11,11.0001 L11,13.1973 C10.1175,13.7078 9.0928,13.9999 7.99992,13.9999 L7.99992,12 C7.99992,10.8954 7.10448,10 5.99992,10 C4.89535,10 3.99992,9.1046 3.99992,8 C3.99992,7.00849 3.27841,6.1855 2.33179,6.02741 Z" fill-rule="evenodd"/></svg>