<svg width="16" height="16" viewBox="0 0 16 16" aria-hidden="true" focusable="false" role="presentation" xmlns="http://www.w3.org/2000/svg"><path fill="currentColor" d="M8,0 C12.418278,0 16,3.581722 16,8 C16,12.418278 12.418278,16 8,16 C3.581722,16 0,12.418278 0,8 C0,3.581722 3.581722,0 8,0 Z M8,10.5 C7.7093669,10.5 7.42232598,10.5053935 7.14038628,10.5158077 C7.23337532,11.3268972 7.37186665,12.0609733 7.54731039,12.6750263 C7.64072593,13.0019808 7.74171689,13.2832066 7.84437522,13.5103702 L7.92158929,13.6704761 L8,13.809 L8.09129964,13.6452328 C8.16862213,13.4920258 8.24569906,13.3074322 8.32003799,13.0949678 L8.39337194,12.8733433 L8.45268961,12.6750263 C8.62813335,12.0609733 8.76662468,11.3268972 8.8604024,10.5178408 C8.57794439,10.5053985 8.29076998,10.5 8,10.5 Z M3.07932827,11.1195478 L2.90975786,11.1779041 C3.56953129,12.2324737 4.54792297,13.0672963 5.7101068,13.5475457 C5.51355546,12.9529229 5.35780424,12.269039 5.24282283,11.5170815 L5.18872947,11.1355281 L5.13531381,10.6835455 C4.45454796,10.7754026 3.84146793,10.8983437 3.32775656,11.044545 L3.07932827,11.1195478 Z M10.865514,10.6836572 L10.8112705,11.1355281 C10.6929795,12.0385983 10.5192031,12.8538191 10.290283,13.5474271 C11.4524431,13.067145 12.4310851,12.2319477 13.0908655,11.1769075 C12.5795603,10.9974934 11.9304325,10.8450048 11.1888589,10.7304148 L10.865514,10.6836572 Z M2.14643285,6.67322831 L2.14463444,6.68461318 C2.0499517,7.10792816 2,7.54813066 2,8 C2,8.45653148 2.05098777,8.90115414 2.14757938,9.32848403 C2.92895947,9.04291946 3.90904075,8.82360233 5.00795676,8.68252257 L5.00156283,8.30324663 L5.00156283,8.30324663 L5.00156283,7.69675337 L5.0077203,7.31855818 C3.90905463,7.17749715 2.92917887,6.95823287 2.14643285,6.67322831 Z M13.8526482,6.67252306 L13.7239307,6.71920887 C12.9636749,6.98190491 12.0309659,7.18521077 10.9920432,7.31858854 L10.9937499,7.3965988 C10.9979158,7.59563059 11,7.79684546 11,8 L10.9984372,8.30324663 L10.9984372,8.30324663 L10.9922797,8.68255293 C12.0909454,8.82361396 13.0708211,9.04287824 13.8535671,9.3278828 C13.9490122,8.90115414 14,8.45653148 14,8 C14,7.54382714 13.9490923,7.09954441 13.8526482,6.67252306 Z M8.99433123,7.48084493 L8.73530212,7.49067289 C8.49269431,7.49759899 8.24738798,7.50111111 8,7.50111111 C7.66424363,7.50111111 7.33232167,7.49464176 7.00577631,7.48194841 L7,8 C7,8.17464286 7.00191508,8.34813401 7.00569075,8.52015716 C7.33273845,8.50646123 7.66445442,8.5 8,8.5 C8.33575637,8.5 8.66767833,8.50646935 8.99422369,8.5191627 L9,8 L8.99433123,7.48084493 Z M7.999,2.19 L7.92158929,2.32952391 C7.79268582,2.5790385 7.66407982,2.91628064 7.54731039,3.32497366 C7.3717943,3.93927995 7.2332611,4.6737082 7.13948161,5.48316018 C7.42205561,5.49571258 7.70923002,5.50111111 8,5.50111111 C8.2906331,5.50111111 8.57767402,5.49571766 8.85961372,5.4853034 C8.7667389,4.6737082 8.6282057,3.93927995 8.45268961,3.32497366 C8.35927407,2.99801924 8.25828311,2.71679339 8.15562478,2.48962976 L8.07841071,2.32952391 L7.999,2.19 Z M5.70971699,2.45257289 L5.66452923,2.47150974 C4.52197997,2.95476733 3.56027477,3.78186854 2.90913446,4.82309254 C3.49261827,5.02905603 4.25734917,5.19905802 5.13448601,5.31745393 L5.18872947,4.86447194 C5.3070205,3.96140172 5.4807969,3.14618088 5.70971699,2.45257289 Z M10.2898932,2.45245426 L10.3405981,2.60983036 C10.510786,3.15856313 10.6481653,3.77811998 10.7525792,4.45301687 L10.8112705,4.86447194 L10.8646862,5.31756564 C11.7419712,5.19919175 12.5068518,5.02919739 13.0915243,4.82432587 C12.482457,3.84978966 11.60152,3.06285863 10.5549303,2.56959163 L10.2898932,2.45245426 Z"/></svg>