<svg width="16" height="16" viewBox="0 0 16 16" aria-hidden="true" focusable="false" role="presentation" xmlns="http://www.w3.org/2000/svg"><path fill="currentColor" d="M4,11 C6.209139,11 8,12.790861 8,15 C8,15.5522847 7.55228475,16 7,16 C6.48716416,16 6.06449284,15.6139598 6.00672773,15.1166211 L6,15 C6,13.8954305 5.1045695,13 4,13 C2.8954305,13 2,13.8954305 2,15 C2,15.5522847 1.55228475,16 1,16 C0.44771525,16 0,15.5522847 0,15 C0,12.790861 1.790861,11 4,11 Z M12,7 C14.209139,7 16,8.790861 16,11 C16,11.5522847 15.5522847,12 15,12 C14.4871642,12 14.0644928,11.6139598 14.0067277,11.1166211 L14,11 C14,9.8954305 13.1045695,9 12,9 C10.8954305,9 10,9.8954305 10,11 C10,11.5522847 9.55228475,12 9,12 C8.44771525,12 8,11.5522847 8,11 C8,8.790861 9.790861,7 12,7 Z M4,4 C5.65685425,4 7,5.34314575 7,7 C7,8.65685425 5.65685425,10 4,10 C2.34314575,10 1,8.65685425 1,7 C1,5.34314575 2.34314575,4 4,4 Z M4,6 C3.44771525,6 3,6.44771525 3,7 C3,7.55228475 3.44771525,8 4,8 C4.55228475,8 5,7.55228475 5,7 C5,6.44771525 4.55228475,6 4,6 Z M12,0 C13.6568542,0 15,1.34314575 15,3 C15,4.65685425 13.6568542,6 12,6 C10.3431458,6 9,4.65685425 9,3 C9,1.34314575 10.3431458,0 12,0 Z M12,2 C11.4477153,2 11,2.44771525 11,3 C11,3.55228475 11.4477153,4 12,4 C12.5522847,4 13,3.55228475 13,3 C13,2.44771525 12.5522847,2 12,2 Z"/></svg>