<svg width="16" height="16" viewBox="0 0 16 16" aria-hidden="true" focusable="false" role="presentation" xmlns="http://www.w3.org/2000/svg"><path fill="currentColor" d="M8,12 C9.1045695,12 10,12.8954305 10,14 C10,15.1045695 9.1045695,16 8,16 C6.8954305,16 6,15.1045695 6,14 C6,12.8954305 6.8954305,12 8,12 Z M8,0 C10.7339287,0 13,1.98281241 13,4.5 C13,6.70221543 11.2655491,8.49542011 9.00077906,8.90970205 L9,9.5 C9,10.0522847 8.55228475,10.5 8,10.5 C7.48716416,10.5 7.06449284,10.1139598 7.00672773,9.61662113 L7,9.5 L7,8 C7,7.44771525 7.44771525,7 8,7 C9.68434932,7 11,5.84880566 11,4.5 C11,3.15119434 9.68434932,2 8,2 C6.31565068,2 5,3.15119434 5,4.5 C5,5.05228475 4.55228475,5.5 4,5.5 C3.44771525,5.5 3,5.05228475 3,4.5 C3,1.98281241 5.26607132,0 8,0 Z"/></svg>