<svg width="16" height="16" viewBox="0 0 16 16" aria-hidden="true" focusable="false" role="presentation" xmlns="http://www.w3.org/2000/svg"><path fill="currentColor" d="M12,14 C12.5522847,14 13,14.4477153 13,15 C13,15.5128358 12.6139598,15.9355072 12.1166211,15.9932723 L12,16 L1,16 C0.44771525,16 0,15.5522847 0,15 C0,14.4871642 0.38604019,14.0644928 0.883378875,14.0067277 L1,14 L12,14 Z M12,0 C12.5522847,0 13,0.44771525 13,1 C13,1.18260372 12.9510565,1.35377607 12.8655723,1.5011143 C12.9298488,1.61051841 12.9733261,1.73395373 12.9910475,1.86569801 L13,2 L13,8 C13,8.18219703 12.9512743,8.35301356 12.8661429,8.5001295 C12.9510565,8.64622393 13,8.81739628 13,9 C13,9.36968103 12.7994004,9.69250951 12.5011143,9.86557226 L12.5,11 C12.5,11.2210137 12.4268355,11.434484 12.2939194,11.6080295 L12.2071068,11.7071068 L11.2071068,12.7071068 C10.6045317,13.3096819 9.59281919,12.9276677 9.50598327,12.1136309 L9.5,12 L9.5,10 C9.5,9.95613212 9.5028824,9.91256143 9.50854233,9.86954112 C9.20459156,9.69889756 9,9.37334124 9,9 C9,8.81739628 9.0489435,8.64622393 9.13442774,8.4988857 C9.07015123,8.38948159 9.02667388,8.26604627 9.00895249,8.13430199 L9,8 L9,2 C9,1.81780297 9.04872573,1.64698644 9.13385712,1.4998705 C9.0489435,1.35377607 9,1.18260372 9,1 C9,0.487164161 9.38604019,0.0644928393 9.88337887,0.00672773133 L10,0 L12,0 Z"/></svg>