<svg width="16" height="16" viewBox="0 0 16 16" aria-hidden="true" focusable="false" role="presentation" xmlns="http://www.w3.org/2000/svg"><path fill="currentColor" d="M14,0 C15.0543618,0 15.9181651,0.815877791 15.9945143,1.85073766 L16,2 L16,14 C16,15.0543618 15.1841222,15.9181651 14.1492623,15.9945143 L14,16 L2,16 C0.945638205,16 0.0818348781,15.1841222 0.00548573643,14.1492623 L0,14 L0,2 C0,0.945638205 0.815877791,0.0818348781 1.85073766,0.00548573643 L2,0 L14,0 Z M14,2 L2,2 L2,14 L14,14 L14,2 Z M9.54145248,5.12213937 L9.59648295,5.19084277 L12.9293307,10.3336999 C13.0985213,10.594775 12.9458527,10.9370896 12.6629375,10.992329 L12.5826935,11 L9.22956549,11.000554 C9.38101295,10.7046385 9.37898764,10.3284054 9.15394288,10.0197277 L7.36454649,7.564 L8.90320872,5.19084277 C9.05162037,4.96183145 9.3608727,4.93893031 9.54145248,5.12213937 Z M6.18902068,6.81798942 L6.2502829,6.88571429 L8.74991868,10.3142857 C8.94005528,10.5750825 8.78770602,10.9386856 8.49312613,10.9930813 L8.41663391,11 L3.41736235,11 C3.10046801,11 2.90911637,10.6564582 3.04356266,10.3813883 L3.08407757,10.3142857 L5.58371336,6.88571429 C5.73183992,6.68253968 6.01163454,6.65996473 6.18902068,6.81798942 Z"/></svg>