<svg width="16" height="16" viewBox="0 0 16 16" aria-hidden="true" focusable="false" role="presentation" xmlns="http://www.w3.org/2000/svg"><path fill="currentColor" d="M8,9 C12.3599467,9 16,11.6000381 16,15 C16,15.5522847 15.5522847,16 15,16 C14.4871642,16 14.0644928,15.6139598 14.0067277,15.1166211 L14,15 C14,12.8771144 11.3720398,11 8,11 C4.62796016,11 2,12.8771144 2,15 C2,15.5522847 1.55228475,16 1,16 C0.44771525,16 0,15.5522847 0,15 C0,11.6000381 3.64005335,9 8,9 Z M8,0 C10.209139,0 12,1.790861 12,4 C12,6.209139 10.209139,8 8,8 C5.790861,8 4,6.209139 4,4 C4,1.790861 5.790861,0 8,0 Z M8,2 C6.8954305,2 6,2.8954305 6,4 C6,5.1045695 6.8954305,6 8,6 C9.1045695,6 10,5.1045695 10,4 C10,2.8954305 9.1045695,2 8,2 Z"/></svg>