<svg width="16" height="16" viewBox="0 0 16 16" aria-hidden="true" focusable="false" role="presentation" xmlns="http://www.w3.org/2000/svg"><path fill="currentColor" d="M14,4 C14.6310464,4 15.1043391,4.57732421 14.9805807,5.19611614 L14.9805807,5.19611614 L12.9805807,15.1961161 C12.8870958,15.6635403 12.476681,16 12,16 L12,16 L4,16 C3.52331898,16 3.11290416,15.6635403 3.01941932,15.1961161 L3.01941932,15.1961161 L1.01941932,5.19611614 C0.895660939,4.57732421 1.36895358,4 2,4 L2,4 Z M12.78,6 L3.219,6 L4.819,14 L11.18,14 L12.78,6 Z M15,0 C15.5522847,0 16,0.44771525 16,1 C16,1.55228475 15.5522847,2 15,2 L1,2 C0.44771525,2 0,1.55228475 0,1 C0,0.44771525 0.44771525,0 1,0 L15,0 Z"/></svg>